<mxfile host="app.diagrams.net" modified="2024-03-23T10:28:07.082Z" agent="Mozilla/5.0 (Macintosh; Intel Mac OS X 10_15_7) AppleWebKit/537.36 (KHTML, like Gecko) Chrome/122.0.0.0 Safari/537.36" etag="tJig_Y_Yhc9AI28uCehz" version="24.0.7" type="github">
  <diagram name="第 1 页" id="Ov6dm57VOHMw3yZlmg6d">
    <mxGraphModel dx="2074" dy="1180" grid="1" gridSize="10" guides="1" tooltips="1" connect="1" arrows="1" fold="1" page="1" pageScale="1" pageWidth="1200" pageHeight="500" math="0" shadow="0">
      <root>
        <mxCell id="0" />
        <mxCell id="1" parent="0" />
        <mxCell id="FRjMIeKZ7Y1J9hZZ6zwi-1" value="" style="rounded=0;whiteSpace=wrap;html=1;fillColor=#121340;" vertex="1" parent="1">
          <mxGeometry x="40" width="440" height="190" as="geometry" />
        </mxCell>
        <mxCell id="FRjMIeKZ7Y1J9hZZ6zwi-3" style="edgeStyle=orthogonalEdgeStyle;rounded=0;orthogonalLoop=1;jettySize=auto;html=1;exitX=0.5;exitY=1;exitDx=0;exitDy=0;entryX=0.5;entryY=0;entryDx=0;entryDy=0;strokeColor=#FFFFFF;" edge="1" parent="1" source="FRjMIeKZ7Y1J9hZZ6zwi-4" target="FRjMIeKZ7Y1J9hZZ6zwi-9">
          <mxGeometry relative="1" as="geometry" />
        </mxCell>
        <mxCell id="FRjMIeKZ7Y1J9hZZ6zwi-4" value="" style="rounded=1;whiteSpace=wrap;html=1;fillColor=#f5f5f5;fontColor=#333333;strokeColor=#666666;" vertex="1" parent="1">
          <mxGeometry x="60" y="5" width="400" height="60" as="geometry" />
        </mxCell>
        <mxCell id="FRjMIeKZ7Y1J9hZZ6zwi-5" value="正面" style="rounded=0;whiteSpace=wrap;html=1;" vertex="1" parent="1">
          <mxGeometry x="72.5" y="20" width="70" height="30" as="geometry" />
        </mxCell>
        <mxCell id="FRjMIeKZ7Y1J9hZZ6zwi-6" value="中性" style="rounded=0;whiteSpace=wrap;html=1;" vertex="1" parent="1">
          <mxGeometry x="152.5" y="20" width="70" height="30" as="geometry" />
        </mxCell>
        <mxCell id="FRjMIeKZ7Y1J9hZZ6zwi-7" value="负面-支小宝" style="rounded=0;whiteSpace=wrap;html=1;" vertex="1" parent="1">
          <mxGeometry x="232.5" y="20" width="70" height="30" as="geometry" />
        </mxCell>
        <mxCell id="FRjMIeKZ7Y1J9hZZ6zwi-8" value="" style="endArrow=none;dashed=1;html=1;dashPattern=1 3;strokeWidth=4;rounded=0;" edge="1" parent="1">
          <mxGeometry width="50" height="50" relative="1" as="geometry">
            <mxPoint x="400" y="34.5" as="sourcePoint" />
            <mxPoint x="440" y="35" as="targetPoint" />
          </mxGeometry>
        </mxCell>
        <mxCell id="FRjMIeKZ7Y1J9hZZ6zwi-9" value="情绪归因回应话术" style="rounded=1;whiteSpace=wrap;html=1;fillColor=#ffe6cc;strokeColor=#d79b00;" vertex="1" parent="1">
          <mxGeometry x="167.5" y="90" width="180" height="30" as="geometry" />
        </mxCell>
        <mxCell id="FRjMIeKZ7Y1J9hZZ6zwi-15" value="负面-公司" style="rounded=0;whiteSpace=wrap;html=1;" vertex="1" parent="1">
          <mxGeometry x="312.5" y="20" width="70" height="30" as="geometry" />
        </mxCell>
        <mxCell id="FRjMIeKZ7Y1J9hZZ6zwi-16" value="" style="endArrow=classic;html=1;rounded=0;exitX=0.5;exitY=1;exitDx=0;exitDy=0;entryX=0.5;entryY=0;entryDx=0;entryDy=0;strokeColor=#FFFFFF;" edge="1" parent="1" source="FRjMIeKZ7Y1J9hZZ6zwi-9">
          <mxGeometry width="50" height="50" relative="1" as="geometry">
            <mxPoint x="570" y="350" as="sourcePoint" />
            <mxPoint x="257.5" y="150" as="targetPoint" />
          </mxGeometry>
        </mxCell>
        <mxCell id="FRjMIeKZ7Y1J9hZZ6zwi-17" value="LLM客户情绪安抚回复" style="rounded=1;whiteSpace=wrap;html=1;" vertex="1" parent="1">
          <mxGeometry x="167.5" y="150" width="180" height="30" as="geometry" />
        </mxCell>
      </root>
    </mxGraphModel>
  </diagram>
</mxfile>
